<?xml version="1.0" encoding="utf-8"?>
<!-- Generator: Adobe Illustrator 27.5.0, SVG Export Plug-In . SVG Version: 6.00 Build 0)  -->
<svg version="1.1" xmlns="http://www.w3.org/2000/svg" xmlns:xlink="http://www.w3.org/1999/xlink" x="0px" y="0px"
	 viewBox="0 0 500 500" style="enable-background:new 0 0 500 500;" xml:space="preserve">
<g id="Floor">
	<path id="Floor_2_" style="fill:#F5F5F5;" d="M85.594,386.905c90.368,48.426,236.884,48.427,327.251,0.001
		c90.368-48.427,90.368-126.941,0-175.367c-90.368-48.427-236.884-48.427-327.253-0.001
		C-4.775,259.964-4.775,338.479,85.594,386.905z"/>
</g>
<g id="Clouds">
	<g id="Clouds_1_">
		<path id="XMLID_623_" style="fill:#EBEBEB;" d="M115.021,73.543l-6.952,4.014c0.035-0.311,0.059-0.619,0.059-0.92v-2.014
			c0-3.584-2.516-5.037-5.62-3.245c-1.257,0.726-2.413,1.876-3.349,3.221c-0.508-4.507-4.044-6.185-8.338-3.706
			c-4.643,2.681-8.408,9.201-8.408,14.563v3.013c0,1.389,0.257,2.558,0.712,3.49l-5.774,3.334c-1.722,0.994-3.117,3.411-3.117,5.399
			c0,1.988,1.396,2.794,3.117,1.8l37.671-21.749c1.722-0.994,3.117-3.411,3.117-5.399C118.139,73.355,116.743,72.549,115.021,73.543
			z"/>
		<path id="XMLID_616_" style="fill:#EBEBEB;" d="M144.771,93.798l-5.246,3.029c0.026-0.234,0.044-0.467,0.044-0.695v-1.52
			c0-2.705-1.899-3.801-4.241-2.449c-0.949,0.548-1.821,1.415-2.528,2.431c-0.384-3.401-3.052-4.668-6.293-2.797
			c-3.504,2.023-6.345,6.944-6.345,10.99v2.274c0,1.048,0.194,1.931,0.537,2.634l-4.358,2.516c-1.299,0.75-2.353,2.575-2.353,4.075
			c0,1.5,1.053,2.108,2.353,1.358l28.431-16.414c1.299-0.75,2.353-2.575,2.353-4.075C147.124,93.656,146.07,93.048,144.771,93.798z"
			/>
		<path id="XMLID_608_" style="fill:#EBEBEB;" d="M425.746,121.07l-5.246,3.029c0.026-0.234,0.044-0.467,0.044-0.694v-1.52
			c0-2.705-1.899-3.801-4.241-2.449c-0.949,0.548-1.821,1.415-2.528,2.431c-0.384-3.401-3.052-4.668-6.293-2.797
			c-3.504,2.023-6.345,6.944-6.345,10.99v2.274c0,1.048,0.194,1.931,0.537,2.634l-4.358,2.516c-1.299,0.75-2.353,2.575-2.353,4.075
			c0,1.5,1.053,2.109,2.353,1.358l28.431-16.414c1.299-0.75,2.353-2.575,2.353-4.075C428.098,120.928,427.045,120.32,425.746,121.07
			z"/>
	</g>
</g>
<g id="Houses">
	<g id="House_1_">
		<g id="XMLID_168_">
			<polygon id="XMLID_176_" style="fill:#27DEBF;" points="112.351,218.436 34.357,263.468 34.357,267.22 105.85,308.493 
				183.844,263.468 183.844,259.716 			"/>
			<polyline id="XMLID_172_" style="opacity:0.15;" points="34.357,263.468 105.851,304.741 105.85,308.493 34.357,267.22 
				34.357,263.468 			"/>
			<polygon id="XMLID_171_" style="opacity:0.1;" points="105.851,304.741 183.844,259.716 183.844,263.468 105.85,308.493 			"/>
		</g>
		<g id="XMLID_177_">
			<g id="XMLID_192_">
				
					<rect id="XMLID_193_" x="172.212" y="249.092" transform="matrix(0.4527 -0.8917 0.8917 0.4527 -126.2372 293.0845)" style="fill:#455A64;" width="6.812" height="0.557"/>
			</g>
			<g id="XMLID_190_">
				
					<rect id="XMLID_191_" x="172.177" y="245.44" transform="matrix(0.8503 -0.5263 0.5263 0.8503 -104.8647 127.9405)" style="fill:#455A64;" width="0.557" height="5.713"/>
			</g>
			<path id="XMLID_189_" style="fill:#455A64;" d="M174.542,245.143v14.639c0,0.069-0.046,0.138-0.136,0.19
				c-0.182,0.105-0.477,0.105-0.659,0c-0.091-0.052-0.136-0.121-0.136-0.19v-14.639H174.542z"/>
			<path id="XMLID_188_" style="fill:#27DEBF;" d="M185.609,240.587c0,3.755-3.044,6.798-6.798,6.798
				c-3.755,0-6.798-3.044-6.798-6.798c0-3.755,3.044-6.798,6.798-6.798C182.565,233.789,185.609,236.833,185.609,240.587z"/>
			<path id="XMLID_187_" style="opacity:0.2;" d="M180.941,238.849c0.877-2.761,1.811-3.841,1.218-4.178
				c-0.988-0.561-2.131-0.882-3.349-0.882c-3.755,0-6.798,3.044-6.798,6.798c0,3.755,3.044,6.798,6.798,6.798
				c2.111,0,3.997-0.962,5.244-2.472C182.04,245.502,179.804,242.43,180.941,238.849z"/>
			<path id="XMLID_186_" style="fill:#27DEBF;" d="M172.878,242.512c0,2.639-2.139,4.778-4.778,4.778
				c-2.639,0-4.778-2.139-4.778-4.778c0-2.639,2.139-4.778,4.778-4.778C170.739,237.734,172.878,239.873,172.878,242.512z"/>
			<path id="XMLID_185_" style="opacity:0.2;" d="M168.1,237.734c-1.043,0-2.007,0.335-2.792,0.902
				c-0.129,2.918,2.348,5.765,1.656,6.721c-0.698,0.964-2.399,0.369-2.993-0.443c0.828,1.421,2.367,2.376,4.13,2.376
				c2.639,0,4.778-2.139,4.778-4.778C172.878,239.873,170.739,237.734,168.1,237.734z"/>
			<g id="XMLID_182_">
				<circle id="XMLID_184_" style="fill:#27DEBF;" cx="174.076" cy="237.36" r="8.765"/>
			</g>
			<path id="XMLID_178_" style="opacity:0.1;" d="M182.607,239.363c-0.905,3.876-4.38,6.762-8.532,6.762
				c-4.841,0-8.766-3.923-8.766-8.765c0-3.273,1.794-6.127,4.453-7.631c-0.763,0.432-1.454,0.976-2.053,1.608
				c-0.149,0.643-0.232,1.312-0.232,2.001c0,4.841,3.925,8.766,8.765,8.766C178.75,242.105,181.009,241.049,182.607,239.363z"/>
		</g>
		<g id="XMLID_304_">
			<g id="XMLID_620_">
				
					<rect id="XMLID_621_" x="42.259" y="252.817" transform="matrix(0.4527 -0.8917 0.8917 0.4527 -200.6863 179.2469)" style="fill:#455A64;" width="6.812" height="0.557"/>
			</g>
			<g id="XMLID_612_">
				
					<rect id="XMLID_619_" x="42.224" y="249.165" transform="matrix(0.8503 -0.5263 0.5263 0.8503 -126.2798 60.1003)" style="fill:#455A64;" width="0.557" height="5.713"/>
			</g>
			<path id="XMLID_605_" style="fill:#455A64;" d="M44.589,248.868v14.639c0,0.069-0.046,0.138-0.137,0.19
				c-0.182,0.105-0.477,0.105-0.659,0c-0.091-0.053-0.137-0.121-0.137-0.19v-14.639H44.589z"/>
			<path id="XMLID_598_" style="fill:#27DEBF;" d="M55.656,244.312c0,3.755-3.044,6.798-6.798,6.798
				c-3.755,0-6.798-3.044-6.798-6.798c0-3.755,3.044-6.798,6.798-6.798C52.612,237.514,55.656,240.558,55.656,244.312z"/>
			<path id="XMLID_316_" style="opacity:0.2;" d="M50.988,242.574c0.877-2.761,1.811-3.841,1.218-4.178
				c-0.988-0.561-2.131-0.882-3.349-0.882c-3.755,0-6.798,3.044-6.798,6.798c0,3.755,3.044,6.798,6.798,6.798
				c2.111,0,3.997-0.962,5.244-2.472C52.088,249.227,49.851,246.155,50.988,242.574z"/>
			<path id="XMLID_309_" style="fill:#27DEBF;" d="M42.926,246.237c0,2.639-2.139,4.778-4.778,4.778
				c-2.639,0-4.778-2.139-4.778-4.778c0-2.639,2.139-4.778,4.778-4.778C40.787,241.458,42.926,243.598,42.926,246.237z"/>
			<path id="XMLID_308_" style="opacity:0.2;" d="M38.148,241.458c-1.043,0-2.007,0.335-2.792,0.902
				c-0.129,2.918,2.349,5.765,1.656,6.721c-0.698,0.964-2.399,0.369-2.993-0.443c0.828,1.421,2.367,2.376,4.13,2.376
				c2.639,0,4.778-2.139,4.778-4.778C42.926,243.598,40.787,241.458,38.148,241.458z"/>
			<g id="XMLID_306_">
				<circle id="XMLID_307_" style="fill:#27DEBF;" cx="44.123" cy="241.085" r="8.765"/>
			</g>
			<path id="XMLID_305_" style="opacity:0.1;" d="M52.655,243.088c-0.905,3.876-4.38,6.762-8.532,6.762
				c-4.841,0-8.766-3.923-8.766-8.765c0-3.273,1.794-6.127,4.453-7.631c-0.763,0.432-1.454,0.976-2.053,1.609
				c-0.149,0.643-0.232,1.312-0.232,2.001c0,4.841,3.925,8.766,8.765,8.766C48.798,245.829,51.057,244.774,52.655,243.088z"/>
		</g>
		<polygon id="XMLID_138_" style="fill:#F0F0F0;" points="130.054,279.512 140.944,273.232 150.711,278.871 139.826,285.143 		"/>
		<polygon id="XMLID_585_" style="fill:#F0F0F0;" points="53.868,263.466 53.856,229.696 105.856,259.714 105.856,293.485 		"/>
		<polygon id="XMLID_571_" style="fill:#E0E0E0;" points="53.861,243.099 105.856,273.13 105.856,259.714 53.856,229.696 		"/>
		<polygon id="XMLID_584_" style="fill:#FAFAFA;" points="164.344,259.714 164.344,226.885 144.842,222.188 144.84,218.438 
			105.856,259.714 105.856,293.485 		"/>
		<polygon id="XMLID_597_" style="fill:#263238;" points="144.843,218.438 144.843,222.188 167.593,227.819 167.593,224.069 		"/>
		<polygon id="XMLID_563_" style="fill:#37474F;" points="115.604,194.05 167.593,224.069 144.843,218.438 92.854,188.419 		"/>
		<g id="XMLID_581_">
			<polygon id="XMLID_583_" style="fill:#37474F;" points="102.601,265.363 144.852,218.438 144.852,214.686 99.346,267.219 			"/>
		</g>
		<polygon id="XMLID_580_" style="fill:#455A64;" points="92.857,184.667 144.852,214.686 99.43,267.267 47.357,237.2 		"/>
		<g id="XMLID_11_">
			<polygon id="XMLID_1380_" style="fill:#263238;" points="76.553,233.314 83.097,237.092 83.097,246.581 76.553,242.828 			"/>
			<polygon id="XMLID_1357_" style="fill:#37474F;" points="83.097,237.092 89.641,233.314 89.641,239.079 83.097,246.581 			"/>
			<polygon id="XMLID_1356_" style="fill:#F5F5F5;" points="83.097,226.885 75.873,231.046 75.873,232.935 83.097,237.092 
				90.321,232.935 90.321,231.046 			"/>
			<polygon id="XMLID_1352_" style="fill:#E0E0E0;" points="75.873,232.935 83.097,237.092 83.097,235.203 75.873,231.046 			"/>
			<polygon id="XMLID_1254_" style="fill:#EBEBEB;" points="90.321,232.935 83.097,237.092 83.097,235.203 90.321,231.046 			"/>
			<polygon id="XMLID_1093_" style="fill:#27DEBF;" points="78.295,231.046 83.097,228.279 87.899,231.046 83.097,233.809 			"/>
			<polygon id="XMLID_1092_" style="fill:#37474F;" points="83.097,228.279 83.097,233.809 78.295,231.046 			"/>
			<polygon id="XMLID_1091_" style="fill:#263238;" points="83.097,228.279 87.899,231.046 83.097,233.809 			"/>
		</g>
		<g id="XMLID_562_">
			<g id="XMLID_570_">
				<polygon id="XMLID_574_" style="fill:#455A64;" points="110.073,268.541 124.696,260.099 124.696,271.356 110.073,279.798 				
					"/>
				<polygon id="XMLID_573_" style="fill:#E0E0E0;" points="124.045,270.978 124.045,260.475 110.073,268.541 110.073,279.045 				
					"/>
				<polygon id="XMLID_572_" style="fill:#37474F;" points="124.696,271.356 124.045,270.978 110.073,279.045 110.073,279.798 				
					"/>
			</g>
			<polygon id="XMLID_561_" style="fill:#455A64;" points="110.073,274.17 124.696,265.727 124.696,264.971 110.073,273.414 			"/>
		</g>
		<g id="XMLID_564_">
			<g id="XMLID_577_">
				<polygon id="XMLID_596_" style="fill:#455A64;" points="145.819,247.894 160.442,239.451 160.442,250.708 145.819,259.151 				
					"/>
				<polygon id="XMLID_595_" style="fill:#E0E0E0;" points="159.791,250.331 159.791,239.827 145.819,247.894 145.819,258.398 				
					"/>
				<polygon id="XMLID_579_" style="fill:#37474F;" points="160.442,250.708 159.791,250.331 145.819,258.398 145.819,259.151 				
					"/>
			</g>
			<polygon id="XMLID_565_" style="fill:#455A64;" points="145.819,253.522 160.442,245.079 160.442,244.323 145.819,252.766 			"/>
		</g>
		<g id="XMLID_440_">
			<polygon id="XMLID_576_" style="fill:#37474F;" points="130.054,279.512 130.054,256.998 140.945,250.718 140.945,273.232 			"/>
			<polygon id="XMLID_575_" style="fill:#455A64;" points="140.56,272.941 140.56,250.939 130.054,256.998 130.054,278.999 			"/>
			<polygon id="XMLID_535_" style="fill:#263238;" points="140.945,250.718 140.56,250.939 140.56,272.941 140.945,273.232 			"/>
		</g>
		<g id="XMLID_429_">
			<g id="XMLID_431_">
				<polygon id="XMLID_438_" style="fill:#455A64;" points="93.99,264.126 86.353,259.716 86.353,270.971 93.99,275.383 				"/>
				<polygon id="XMLID_437_" style="fill:#FAFAFA;" points="87.004,270.594 87.004,260.092 93.99,264.126 93.99,274.629 				"/>
				<polygon id="XMLID_434_" style="fill:#37474F;" points="86.353,270.971 87.004,270.594 93.99,274.629 93.99,275.383 				"/>
				<polygon id="XMLID_433_" style="fill:#455A64;" points="93.99,269.716 86.352,265.336 86.352,264.58 93.99,268.96 				"/>
			</g>
			<polygon id="XMLID_430_" style="fill:#F5F5F5;" points="87.004,260.092 93.99,264.126 93.99,266.297 87.004,262.29 			"/>
		</g>
		<g id="XMLID_445_">
			<g id="XMLID_560_">
				<polygon id="XMLID_569_" style="fill:#455A64;" points="71.242,250.99 63.605,246.581 63.605,257.836 71.243,262.247 				"/>
				<polygon id="XMLID_568_" style="fill:#FAFAFA;" points="64.256,257.459 64.256,246.957 71.242,250.99 71.242,261.494 				"/>
				<polygon id="XMLID_567_" style="fill:#37474F;" points="63.605,257.836 64.256,257.459 71.242,261.494 71.243,262.247 				"/>
				<polygon id="XMLID_566_" style="fill:#455A64;" points="71.242,256.581 63.605,252.201 63.605,251.445 71.242,255.825 				"/>
			</g>
			<polygon id="XMLID_470_" style="fill:#F5F5F5;" points="64.256,246.957 71.242,250.99 71.242,253.075 64.256,249.069 			"/>
		</g>
	</g>
	<g id="House_2_">
		<g id="XMLID_358_">
			<polygon id="XMLID_361_" style="fill:#27DEBF;" points="382.862,215.158 304.867,260.189 304.868,263.941 382.864,308.97 
				460.858,263.944 460.858,260.192 			"/>
			<polyline id="XMLID_360_" style="opacity:0.15;" points="304.867,260.189 382.865,305.218 382.864,308.97 304.868,263.941 
				304.867,260.189 			"/>
			<polygon id="XMLID_359_" style="opacity:0.1;" points="382.865,305.218 460.858,260.192 460.858,263.944 382.864,308.97 			"/>
		</g>
		<g id="XMLID_364_">
			<g id="XMLID_378_">
				
					<rect id="XMLID_379_" x="449.465" y="249.693" transform="matrix(0.4527 -0.8917 0.8917 0.4527 24.9779 540.6345)" style="fill:#455A64;" width="6.812" height="0.557"/>
			</g>
			<g id="XMLID_374_">
				
					<rect id="XMLID_375_" x="449.43" y="246.041" transform="matrix(0.8503 -0.5263 0.5263 0.8503 -63.6724 273.9469)" style="fill:#455A64;" width="0.557" height="5.713"/>
			</g>
			<path id="XMLID_372_" style="fill:#455A64;" d="M451.794,245.744v14.639c0,0.069-0.046,0.138-0.137,0.19
				c-0.182,0.105-0.477,0.105-0.659,0c-0.091-0.052-0.137-0.121-0.137-0.19v-14.639H451.794z"/>
			<path id="XMLID_371_" style="fill:#27DEBF;" d="M462.862,241.188c0,3.755-3.044,6.798-6.798,6.798
				c-3.755,0-6.798-3.044-6.798-6.798c0-3.755,3.044-6.798,6.798-6.798C459.818,234.39,462.862,237.433,462.862,241.188z"/>
			<path id="XMLID_370_" style="opacity:0.2;" d="M458.194,239.449c0.877-2.761,1.811-3.841,1.218-4.178
				c-0.988-0.561-2.131-0.882-3.349-0.882c-3.755,0-6.798,3.044-6.798,6.798c0,3.755,3.044,6.798,6.798,6.798
				c2.111,0,3.997-0.962,5.244-2.472C459.293,246.102,457.057,243.03,458.194,239.449z"/>
			<path id="XMLID_369_" style="fill:#27DEBF;" d="M450.132,243.112c0,2.639-2.139,4.778-4.778,4.778s-4.778-2.139-4.778-4.778
				c0-2.639,2.139-4.778,4.778-4.778S450.132,240.473,450.132,243.112z"/>
			<path id="XMLID_368_" style="opacity:0.2;" d="M445.353,238.334c-1.043,0-2.007,0.335-2.792,0.902
				c-0.129,2.918,2.348,5.765,1.656,6.721c-0.698,0.964-2.399,0.369-2.993-0.443c0.828,1.421,2.367,2.376,4.13,2.376
				c2.639,0,4.778-2.139,4.778-4.778C450.132,240.473,447.992,238.334,445.353,238.334z"/>
			<g id="XMLID_366_">
				<circle id="XMLID_367_" style="fill:#27DEBF;" cx="451.328" cy="237.961" r="8.765"/>
			</g>
			<path id="XMLID_365_" style="opacity:0.1;" d="M459.86,239.963c-0.905,3.876-4.38,6.762-8.532,6.762
				c-4.841,0-8.766-3.923-8.766-8.765c0-3.273,1.794-6.127,4.453-7.631c-0.763,0.432-1.454,0.976-2.053,1.609
				c-0.149,0.643-0.232,1.312-0.232,2.001c0,4.841,3.925,8.766,8.765,8.766C456.003,242.705,458.262,241.65,459.86,239.963z"/>
		</g>
		<g id="XMLID_382_">
			<g id="XMLID_422_">
				
					<rect id="XMLID_423_" x="312.771" y="249.365" transform="matrix(0.4527 -0.8917 0.8917 0.4527 -49.5473 418.5675)" style="fill:#455A64;" width="6.812" height="0.557"/>
			</g>
			<g id="XMLID_391_">
				
					<rect id="XMLID_392_" x="312.736" y="245.713" transform="matrix(0.8503 -0.5263 0.5263 0.8503 -83.9638 201.9545)" style="fill:#455A64;" width="0.557" height="5.713"/>
			</g>
			<path id="XMLID_390_" style="fill:#455A64;" d="M315.1,245.416v14.639c0,0.069-0.046,0.138-0.137,0.19
				c-0.182,0.105-0.477,0.105-0.659,0c-0.091-0.052-0.136-0.121-0.136-0.19v-14.639H315.1z"/>
			<path id="XMLID_389_" style="fill:#27DEBF;" d="M326.168,240.86c0,3.755-3.044,6.798-6.798,6.798
				c-3.755,0-6.798-3.044-6.798-6.798c0-3.755,3.044-6.798,6.798-6.798C323.124,234.062,326.168,237.105,326.168,240.86z"/>
			<path id="XMLID_388_" style="opacity:0.2;" d="M321.5,239.122c0.877-2.761,1.811-3.841,1.218-4.178
				c-0.988-0.561-2.131-0.882-3.349-0.882c-3.755,0-6.798,3.044-6.798,6.798c0,3.755,3.044,6.798,6.798,6.798
				c2.111,0,3.997-0.962,5.244-2.472C322.599,245.775,320.363,242.702,321.5,239.122z"/>
			<path id="XMLID_387_" style="fill:#27DEBF;" d="M313.438,242.784c0,2.639-2.139,4.778-4.778,4.778s-4.778-2.139-4.778-4.778
				c0-2.639,2.139-4.778,4.778-4.778S313.438,240.145,313.438,242.784z"/>
			<path id="XMLID_386_" style="opacity:0.2;" d="M308.659,238.006c-1.043,0-2.007,0.335-2.792,0.902
				c-0.129,2.918,2.349,5.765,1.656,6.721c-0.698,0.964-2.399,0.369-2.993-0.443c0.828,1.421,2.367,2.376,4.13,2.376
				c2.639,0,4.778-2.139,4.778-4.778C313.438,240.145,311.298,238.006,308.659,238.006z"/>
			<g id="XMLID_384_">
				<circle id="XMLID_385_" style="fill:#27DEBF;" cx="314.634" cy="237.633" r="8.765"/>
			</g>
			<path id="XMLID_383_" style="opacity:0.1;" d="M323.166,239.635c-0.905,3.876-4.38,6.762-8.532,6.762
				c-4.841,0-8.766-3.923-8.766-8.765c0-3.273,1.794-6.127,4.453-7.631c-0.763,0.432-1.454,0.976-2.053,1.609
				c-0.149,0.643-0.232,1.312-0.232,2.001c0,4.841,3.925,8.766,8.765,8.766C319.309,242.377,321.568,241.322,323.166,239.635z"/>
		</g>
		<g id="XMLID_1777_">
			<polygon id="XMLID_1774_" style="fill:#E0E0E0;" points="398.569,195.581 405.113,199.359 405.113,206.916 398.57,203.138 			"/>
			<polygon id="XMLID_1775_" style="fill:#F0F0F0;" points="405.113,199.359 411.657,195.581 411.657,210.693 405.113,206.916 			
				"/>
			<polygon id="XMLID_1784_" style="fill:#455A64;" points="405.113,189.152 397.889,193.313 397.889,195.202 405.113,199.359 
				412.337,195.202 412.337,193.313 			"/>
			<polygon id="XMLID_1776_" style="fill:#37474F;" points="397.89,195.202 405.113,199.359 405.113,197.47 397.89,193.313 			"/>
			<polygon id="XMLID_1778_" style="fill:#263238;" points="412.337,195.202 405.113,199.359 405.113,197.47 412.337,193.313 			"/>
			<polygon id="XMLID_1780_" style="fill:#27DEBF;" points="400.311,193.313 405.113,190.546 409.915,193.313 405.113,196.077 			
				"/>
			<polygon id="XMLID_1781_" style="fill:#37474F;" points="405.113,190.546 405.113,196.077 400.311,193.313 			"/>
			<polygon id="XMLID_1782_" style="fill:#263238;" points="405.113,190.546 409.915,193.313 405.113,196.077 			"/>
		</g>
		<g id="XMLID_113_">
			<polygon id="XMLID_632_" style="fill:#F0F0F0;" points="382.865,271.446 382.864,237.675 402.327,248.932 402.327,282.704 			"/>
			<polygon id="XMLID_125_" style="fill:#E0E0E0;" points="382.864,237.675 402.327,248.932 402.327,262.382 382.864,251.146 			"/>
			<polygon id="XMLID_629_" style="fill:#FAFAFA;" points="441.358,260.189 441.358,226.418 421.825,215.161 402.327,248.932 
				402.327,282.704 			"/>
			<g id="XMLID_624_">
				<polygon id="XMLID_627_" style="fill:#37474F;" points="399.113,254.561 421.825,215.161 421.825,211.409 395.863,256.437 				
					"/>
			</g>
			<polygon id="XMLID_618_" style="fill:#455A64;" points="382.864,188.895 421.825,211.409 395.863,256.437 382.865,248.932 			"/>
			<g id="XMLID_615_">
				<polygon id="XMLID_617_" style="fill:#263238;" points="421.825,215.161 444.607,228.294 447.857,226.418 421.825,211.409 				
					"/>
			</g>
			<g id="XMLID_599_">
				<polygon id="XMLID_610_" style="fill:#455A64;" points="429.972,244.95 437.609,240.57 437.609,251.827 429.972,256.207 				"/>
				<polygon id="XMLID_609_" style="fill:#E0E0E0;" points="436.958,251.45 436.958,240.946 429.972,244.95 429.972,255.454 				"/>
				<polygon id="XMLID_600_" style="fill:#37474F;" points="437.609,251.827 436.958,251.45 429.972,255.454 429.972,256.207 				
					"/>
				<polygon id="XMLID_590_" style="fill:#455A64;" points="429.972,250.579 437.609,246.199 437.609,245.443 429.972,249.822 				
					"/>
			</g>
			<g id="XMLID_1786_">
				<polygon id="XMLID_1806_" style="fill:#455A64;" points="405.994,258.778 413.631,254.398 413.631,265.655 405.994,270.035 				
					"/>
				<polygon id="XMLID_1789_" style="fill:#E0E0E0;" points="412.98,265.277 412.98,254.774 405.994,258.778 405.994,269.281 				
					"/>
				<polygon id="XMLID_1788_" style="fill:#37474F;" points="413.631,265.655 412.98,265.277 405.994,269.281 405.994,270.035 				
					"/>
				<polygon id="XMLID_1787_" style="fill:#455A64;" points="405.994,264.406 413.631,260.026 413.631,259.27 405.994,263.65 				
					"/>
			</g>
			<g id="XMLID_591_">
				<polygon id="XMLID_594_" style="fill:#455A64;" points="416.951,232.047 426.699,226.418 426.699,234.861 416.951,240.49 				
					"/>
				<polygon id="XMLID_593_" style="fill:#E0E0E0;" points="426.048,234.484 426.048,226.794 416.951,232.047 416.951,239.737 				
					"/>
				<polygon id="XMLID_592_" style="fill:#37474F;" points="426.699,234.861 426.048,234.484 416.951,239.737 416.951,240.49 				
					"/>
			</g>
			<polygon id="XMLID_589_" points="444.607,228.294 441.358,228.294 441.358,226.419 			"/>
			<g id="XMLID_1779_">
				<polygon id="XMLID_614_" style="fill:#37474F;" points="416.38,274.581 416.38,252.067 427.271,245.787 427.271,268.302 				"/>
				<polygon id="XMLID_613_" style="fill:#455A64;" points="426.887,268.011 426.887,246.009 416.38,252.067 416.38,274.069 				"/>
				<polygon id="XMLID_587_" style="fill:#263238;" points="427.271,245.787 426.887,246.009 426.887,268.011 427.271,268.302 				
					"/>
			</g>
		</g>
		<g id="XMLID_115_">
			<polygon id="XMLID_166_" style="fill:#FAFAFA;" points="382.864,271.446 382.864,237.675 363.401,248.932 363.401,282.704 			"/>
			<polygon id="XMLID_129_" style="fill:#F5F5F5;" points="382.864,237.675 363.401,248.932 363.401,262.382 382.865,251.146 			"/>
			<polygon id="XMLID_165_" style="fill:#EBEBEB;" points="324.37,260.189 324.37,226.418 343.903,215.161 363.401,248.932 
				363.401,282.704 			"/>
			<g id="XMLID_163_">
				<polygon id="XMLID_164_" style="fill:#455A64;" points="366.616,254.561 343.903,215.161 343.903,211.409 369.865,256.437 				
					"/>
			</g>
			<polygon id="XMLID_161_" style="fill:#37474F;" points="382.864,188.895 343.903,211.409 369.865,256.437 382.863,248.932 			"/>
			<g id="XMLID_159_">
				<polygon id="XMLID_160_" style="fill:#263238;" points="343.903,215.161 321.121,228.294 317.871,226.418 343.903,211.409 				
					"/>
			</g>
			<g id="XMLID_154_">
				<polygon id="XMLID_158_" style="fill:#455A64;" points="338.508,245.807 330.871,241.428 330.871,252.684 338.508,257.065 				
					"/>
				<polygon id="XMLID_157_" style="fill:#FAFAFA;" points="331.522,252.307 331.522,241.803 338.508,245.807 338.508,256.311 				
					"/>
				<polygon id="XMLID_131_" style="fill:#F5F5F5;" points="331.522,241.803 338.508,245.837 338.508,247.231 331.522,243.224 				
					"/>
				<polygon id="XMLID_126_" style="fill:#F5F5F5;" points="349.881,252.403 356.867,256.437 356.867,257.831 349.881,253.824 				
					"/>
				<polygon id="XMLID_156_" style="fill:#37474F;" points="330.871,252.684 331.522,252.307 338.508,256.311 338.508,257.065 				
					"/>
				<polygon id="XMLID_155_" style="fill:#455A64;" points="338.508,251.436 330.87,247.056 330.87,246.3 338.508,250.68 				"/>
			</g>
			<g id="XMLID_140_">
				<polygon id="XMLID_148_" style="fill:#455A64;" points="348.778,232.047 339.029,226.418 339.029,234.861 348.778,240.49 				
					"/>
				<polygon id="XMLID_146_" style="fill:#FAFAFA;" points="339.68,234.484 339.68,226.794 348.778,232.047 348.778,239.737 				"/>
				<polygon id="XMLID_167_" style="fill:#F5F5F5;" points="339.68,226.794 348.778,232.047 348.778,233.44 339.68,228.215 				"/>
				<polygon id="XMLID_144_" style="fill:#37474F;" points="339.029,234.861 339.68,234.484 348.778,239.737 348.778,240.49 				"/>
			</g>
			<polygon id="XMLID_139_" points="321.121,228.294 324.37,228.294 324.37,226.419 			"/>
			<g id="XMLID_426_">
				<g id="XMLID_149_">
					<polygon id="XMLID_153_" style="fill:#455A64;" points="356.867,256.437 349.23,252.027 349.23,263.283 356.867,267.694 					
						"/>
					<polygon id="XMLID_152_" style="fill:#FAFAFA;" points="349.881,262.905 349.881,252.403 356.867,256.437 356.867,266.941 
											"/>
					<polygon id="XMLID_151_" style="fill:#37474F;" points="349.23,263.283 349.881,262.905 356.867,266.941 356.867,267.694 					
						"/>
					<polygon id="XMLID_150_" style="fill:#455A64;" points="356.867,262.027 349.23,257.647 349.23,256.891 356.867,261.271 					
						"/>
				</g>
				<polygon id="XMLID_123_" style="fill:#F5F5F5;" points="349.881,252.403 356.867,256.437 356.867,257.831 349.881,253.824 				
					"/>
			</g>
		</g>
		<g id="XMLID_112_">
			<polygon id="XMLID_122_" style="fill:#263238;" points="395.864,256.438 386.098,250.799 386.098,261.175 395.864,266.813 			"/>
			<polygon id="XMLID_121_" style="fill:#FAFAFA;" points="386.698,260.827 386.698,251.146 395.864,256.438 395.864,266.119 			"/>
			<polygon id="XMLID_120_" style="fill:#F0F0F0;" points="386.698,251.146 386.698,253.403 395.864,258.696 395.864,256.438 			"/>
			<polygon id="XMLID_119_" style="fill:#37474F;" points="386.098,261.175 386.698,260.827 395.864,266.119 395.864,266.813 			"/>
			<polygon id="XMLID_116_" style="fill:#37474F;" points="386.098,255.987 386.698,255.639 395.864,260.931 395.864,261.626 			"/>
			<polygon id="XMLID_114_" style="fill:#37474F;" points="390.779,263.877 391.379,264.224 391.379,253.848 390.779,253.502 			"/>
		</g>
		<g id="Plants_2_">
			<g id="XMLID_330_">
				<g id="XMLID_335_">
					<path id="XMLID_336_" style="fill:#27DEBF;" d="M376.189,279.038l1.73-0.989c0,0,0.83-4.574,0.209-8.506
						c-0.873-5.528-4.637-7.435-6.004-6.885s-1.688,2.187,0.78,5.381C374.362,269.924,376.235,273.908,376.189,279.038z"/>
				</g>
				<g id="XMLID_333_" style="opacity:0.2;">
					<path id="XMLID_334_" d="M376.189,279.038l1.73-0.989c0,0,0.83-4.574,0.209-8.506c-0.873-5.528-4.637-7.435-6.004-6.885
						s-1.688,2.187,0.78,5.381C374.362,269.924,376.235,273.908,376.189,279.038z"/>
				</g>
				<g id="XMLID_331_">
					<path id="XMLID_332_" style="fill:#FFFFFF;" d="M376.816,276.843c-0.006,0-0.011,0-0.017-0.001
						c-0.067-0.009-0.115-0.072-0.105-0.139c0.715-5.175-1.366-10.846-3.704-13.131c-0.049-0.047-0.05-0.126-0.002-0.174
						c0.048-0.048,0.126-0.05,0.174-0.002c2.381,2.327,4.502,8.089,3.776,13.341C376.929,276.798,376.876,276.843,376.816,276.843z"
						/>
				</g>
			</g>
			<g id="XMLID_323_">
				<g id="XMLID_328_">
					<path id="XMLID_329_" style="fill:#27DEBF;" d="M371.387,281.812c-0.273,0.157-0.837-0.186-1.053-0.331
						c-0.37-0.248-0.669-0.599-0.868-0.996c-0.231-0.462-0.29-0.957-0.217-1.469c0.038-0.265,0.112-0.523,0.186-0.781
						c0.073-0.253,0.145-0.505,0.218-0.758c0.072-0.249,0.144-0.507,0.111-0.765c-0.066-0.518-0.526-0.882-0.945-1.195
						c-0.463-0.346-0.944-0.804-0.942-1.428c0.002-0.482,0.251-0.929,0.55-1.307c0.298-0.378,0.653-0.712,0.922-1.111
						c0.194-0.287,0.346-0.625,0.314-0.97c-0.02-0.215-0.108-0.417-0.211-0.606c-0.22-0.406-0.511-0.779-0.663-1.215
						c-0.152-0.437-0.13-0.98,0.21-1.292c0.28-0.257,0.695-0.292,1.074-0.267c0.35,0.023,0.692,0.181,0.999,0.352
						c0.991,0.551,1.556,1.724,2.608,2.148c0.406,0.164,0.85,0.199,1.273,0.311c0.423,0.112,0.854,0.328,1.049,0.719
						c0.386,0.771-0.33,1.721-0.059,2.539c0.24,0.724,0.944,1.001,1.339,1.654c0.173,0.285,0.213,0.616,0.185,0.948
						c-0.047,0.563-0.13,0.976-0.4,1.602c-0.223,0.517-0.879,1.443-0.879,1.443C376.172,279.055,371.429,281.788,371.387,281.812z"
						/>
				</g>
				<g id="XMLID_362_" style="opacity:0.1;">
					<path id="XMLID_363_" d="M371.387,281.812c-0.273,0.157-0.837-0.186-1.053-0.331c-0.37-0.248-0.669-0.599-0.868-0.996
						c-0.231-0.462-0.29-0.957-0.217-1.469c0.038-0.265,0.112-0.523,0.186-0.781c0.073-0.253,0.145-0.505,0.218-0.758
						c0.072-0.249,0.144-0.507,0.111-0.765c-0.066-0.518-0.526-0.882-0.945-1.195c-0.463-0.346-0.944-0.804-0.942-1.428
						c0.002-0.482,0.251-0.929,0.55-1.307c0.298-0.378,0.653-0.712,0.922-1.111c0.194-0.287,0.346-0.625,0.314-0.97
						c-0.02-0.215-0.108-0.417-0.211-0.606c-0.22-0.406-0.511-0.779-0.663-1.215c-0.152-0.437-0.13-0.98,0.21-1.292
						c0.28-0.257,0.695-0.292,1.074-0.267c0.35,0.023,0.692,0.181,0.999,0.352c0.991,0.551,1.556,1.724,2.608,2.148
						c0.406,0.164,0.85,0.199,1.273,0.311c0.423,0.112,0.854,0.328,1.049,0.719c0.386,0.771-0.33,1.721-0.059,2.539
						c0.24,0.724,0.944,1.001,1.339,1.654c0.173,0.285,0.213,0.616,0.185,0.948c-0.047,0.563-0.13,0.976-0.4,1.602
						c-0.223,0.517-0.879,1.443-0.879,1.443C376.172,279.055,371.429,281.788,371.387,281.812z"/>
				</g>
				<g id="XMLID_326_">
					<path id="XMLID_327_" style="fill:#FFFFFF;" d="M374.196,280.315c-0.002,0-0.003,0-0.003,0c-0.07-0.003-0.123-0.06-0.12-0.128
						c0.204-4.899-2.104-10.307-3.783-11.878c-0.05-0.047-0.052-0.125-0.006-0.174c0.047-0.05,0.125-0.052,0.174-0.006
						c1.712,1.603,4.067,7.101,3.861,12.068C374.317,280.264,374.262,280.315,374.196,280.315z"/>
				</g>
				<g id="XMLID_324_">
					<path id="XMLID_325_" style="fill:#FFFFFF;" d="M373.462,274.528c-0.012,0-0.024-0.002-0.036-0.005
						c-1.574-0.487-3.535-0.572-3.555-0.573c-0.068-0.003-0.121-0.06-0.118-0.128c0.003-0.068,0.054-0.122,0.128-0.118
						c0.02,0.001,2.013,0.088,3.617,0.584c0.065,0.02,0.102,0.089,0.082,0.154C373.564,274.494,373.515,274.528,373.462,274.528z"/>
				</g>
			</g>
		</g>
		<polygon id="XMLID_380_" style="fill:#F0F0F0;" points="416.38,274.581 427.271,268.302 437.038,273.94 426.152,280.212 		"/>
	</g>
	<g id="XMLID_70_">
		<g id="XMLID_69_">
			<polygon id="XMLID_65_" style="fill:#27DEBF;" points="240.275,290.897 145.224,345.782 145.224,350.003 243.932,406.992 
				338.984,352.114 338.984,347.893 			"/>
			<polyline id="XMLID_425_" style="fill:#F0F0F0;" points="284.146,366.889 295.047,373.26 313.36,362.687 302.425,356.336 
				284.146,366.889 			"/>
			<polyline id="XMLID_67_" style="opacity:0.15;" points="145.224,345.782 243.933,402.771 243.932,406.992 145.224,350.003 
				145.224,345.782 			"/>
			<polygon id="XMLID_68_" style="opacity:0.1;" points="243.933,402.771 338.984,347.893 338.984,352.114 243.932,406.992 			"/>
		</g>
		<g id="XMLID_18337_">
			<g id="XMLID_18311_">
				
					<rect id="XMLID_18317_" x="321.827" y="333.146" transform="matrix(0.4525 -0.8917 0.8917 0.4525 -118.6731 473.7529)" style="fill:#263238;" width="9.357" height="0.765"/>
			</g>
			<g id="XMLID_18307_">
				
					<rect id="XMLID_18310_" x="321.779" y="328.129" transform="matrix(0.8503 -0.5263 0.5263 0.8503 -126.5336 219.271)" style="fill:#263238;" width="0.765" height="7.847"/>
			</g>
			<path id="XMLID_18306_" style="fill:#263238;" d="M325.027,327.722v20.109c0,0.095-0.063,0.189-0.188,0.261
				c-0.25,0.144-0.655,0.144-0.905,0c-0.125-0.072-0.188-0.167-0.188-0.261v-20.109H325.027z"/>
			<circle id="XMLID_18305_" style="fill:#455A64;" cx="330.891" cy="321.463" r="9.339"/>
			<path id="XMLID_18302_" style="fill:#37474F;" d="M333.818,319.075c1.204-3.793,2.488-5.276,1.673-5.738
				c-1.358-0.771-2.927-1.212-4.601-1.212c-5.158,0-9.338,4.181-9.338,9.339s4.181,9.339,9.338,9.339c2.9,0,5.491-1.322,7.204-3.396
				C335.328,328.214,332.256,323.994,333.818,319.075z"/>
			<circle id="XMLID_18301_" style="fill:#455A64;" cx="316.179" cy="324.107" r="6.563"/>
			<path id="XMLID_18300_" style="fill:#37474F;" d="M316.179,317.543c-1.432,0-2.757,0.46-3.836,1.239
				c-0.178,4.009,3.226,7.919,2.275,9.233c-0.959,1.324-3.295,0.507-4.112-0.609c1.137,1.951,3.251,3.264,5.673,3.264
				c3.625,0,6.563-2.938,6.563-6.563C322.742,320.482,319.804,317.543,316.179,317.543z"/>
			<g id="XMLID_18298_">
				
					<ellipse id="XMLID_18299_" transform="matrix(0.2298 -0.9732 0.9732 0.2298 -58.6914 559.9004)" style="fill:#455A64;" cx="324.387" cy="317.03" rx="12.04" ry="12.04"/>
			</g>
			<path id="XMLID_18282_" style="fill:#37474F;" d="M336.107,319.781c-1.243,5.324-6.017,9.289-11.72,9.289
				c-6.65,0-12.041-5.389-12.041-12.039c0-4.496,2.465-8.416,6.117-10.483c-1.048,0.594-1.998,1.341-2.821,2.21
				c-0.205,0.883-0.318,1.802-0.318,2.749c0,6.65,5.391,12.041,12.039,12.041C330.808,323.547,333.911,322.098,336.107,319.781z"/>
		</g>
		<g id="XMLID_71_">
			<g id="XMLID_110_">
				
					<rect id="XMLID_111_" x="157.434" y="330.797" transform="matrix(0.4526 -0.8917 0.8917 0.4526 -206.5768 325.8284)" style="fill:#263238;" width="9.357" height="0.765"/>
			</g>
			<g id="XMLID_108_">
				
					<rect id="XMLID_109_" x="157.386" y="325.781" transform="matrix(0.8503 -0.5263 0.5263 0.8503 -149.9091 132.397)" style="fill:#263238;" width="0.765" height="7.847"/>
			</g>
			<path id="XMLID_107_" style="fill:#263238;" d="M160.635,325.373v20.109c0,0.095-0.063,0.189-0.188,0.261
				c-0.25,0.144-0.655,0.144-0.905,0c-0.125-0.072-0.188-0.167-0.188-0.261v-20.109H160.635z"/>
			<circle id="XMLID_106_" style="fill:#455A64;" cx="166.498" cy="319.115" r="9.339"/>
			<path id="XMLID_105_" style="fill:#37474F;" d="M169.425,316.727c1.204-3.793,2.488-5.276,1.673-5.738
				c-1.358-0.771-2.927-1.212-4.601-1.212c-5.158,0-9.339,4.181-9.339,9.339s4.181,9.339,9.339,9.339c2.9,0,5.491-1.322,7.204-3.396
				C170.935,325.866,167.863,321.646,169.425,316.727z"/>
			<circle id="XMLID_104_" style="fill:#455A64;" cx="151.787" cy="321.758" r="6.563"/>
			<path id="XMLID_101_" style="fill:#37474F;" d="M151.787,315.195c-1.432,0-2.757,0.46-3.836,1.239
				c-0.178,4.009,3.226,7.919,2.275,9.233c-0.959,1.324-3.295,0.507-4.112-0.609c1.137,1.951,3.251,3.264,5.673,3.264
				c3.625,0,6.563-2.938,6.563-6.563C158.35,318.134,155.412,315.195,151.787,315.195z"/>
			<g id="XMLID_86_">
				
					<ellipse id="XMLID_94_" transform="matrix(0.7071 -0.7071 0.7071 0.7071 -175.6523 205.3014)" style="fill:#455A64;" cx="159.995" cy="314.682" rx="12.04" ry="12.04"/>
			</g>
			<path id="XMLID_72_" style="fill:#37474F;" d="M171.714,317.433c-1.243,5.324-6.017,9.289-11.72,9.289
				c-6.65,0-12.041-5.389-12.041-12.04c0-4.496,2.465-8.416,6.117-10.483c-1.048,0.594-1.998,1.341-2.821,2.21
				c-0.205,0.883-0.318,1.802-0.318,2.749c0,6.65,5.391,12.041,12.04,12.041C166.416,321.199,169.519,319.75,171.714,317.433z"/>
		</g>
		<g id="XMLID_16_">
			<polygon id="XMLID_195_" style="fill:#F0F0F0;" points="189.095,333.118 265.867,377.443 265.867,309.9 189.094,265.576 			"/>
			<polygon id="XMLID_295_" style="fill:#F0F0F0;" points="243.932,352.114 243.932,390.107 167.159,345.782 167.16,307.79 			"/>
			<polygon id="XMLID_296_" style="fill:#E0E0E0;" points="167.158,320.454 243.931,364.779 243.932,352.114 167.16,307.79 			"/>
			<polygon id="XMLID_298_" style="fill:#E0E0E0;" points="189.093,278.24 265.866,322.564 265.867,309.9 189.095,265.575 			"/>
			<polygon id="XMLID_196_" style="fill:#FAFAFA;" points="265.867,309.9 317.049,280.351 317.049,347.893 265.867,377.443 			"/>
			<polygon id="XMLID_294_" style="fill:#FAFAFA;" points="243.932,352.114 265.866,331.007 265.866,377.443 243.932,390.107 			"/>
			<polygon id="XMLID_200_" style="fill:#FAFAFA;" points="291.457,265.576 265.867,309.9 317.049,280.351 			"/>
			<path id="XMLID_197_" style="fill:#FAFAFA;" d="M291.457,265.576"/>
			<polygon id="XMLID_199_" style="fill:#27DEBF;" points="262.211,316.232 291.457,265.576 291.457,262.409 262.211,313.066 			"/>
			<polygon id="XMLID_203_" style="opacity:0.1;" points="262.211,316.232 291.457,265.576 291.457,262.409 262.211,313.066 			"/>
			
				<rect id="XMLID_198_" x="209.201" y="221.251" transform="matrix(0.5 -0.866 0.866 0.5 -110.7712 339.2915)" style="fill:#27DEBF;" width="58.493" height="88.649"/>
			<polygon id="XMLID_202_" style="fill:#27DEBF;" points="185.438,268.742 262.211,313.066 262.211,316.232 185.438,271.908 			"/>
			<polygon id="XMLID_201_" style="opacity:0.15;" points="185.438,268.742 262.211,313.066 262.211,316.232 185.438,271.908 			"/>
			<polygon id="XMLID_207_" style="fill:#27DEBF;" points="291.457,262.409 323.446,280.878 320.704,282.461 291.457,265.576 			"/>
			<polygon id="XMLID_206_" style="opacity:0.15;" points="291.457,262.409 323.446,280.878 320.704,282.461 291.457,265.576 			"/>
			<polygon id="XMLID_217_" style="fill:#27DEBF;" points="320.704,282.461 317.048,282.461 317.049,280.351 			"/>
			<polygon id="XMLID_208_" style="opacity:0.3;" points="320.704,282.461 317.048,282.461 317.049,280.351 			"/>
			<g id="XMLID_218_">
				<polygon id="XMLID_238_" style="fill:#F0F0F0;" points="200.871,268.14 200.871,252.941 209.624,247.887 218.344,262.992 
					218.344,278.238 				"/>
				<polygon id="XMLID_236_" style="opacity:0.2;" points="209.624,247.887 198.825,254.122 197.442,253.324 209.624,246.291 				
					"/>
				<polygon id="XMLID_234_" style="fill:#FAFAFA;" points="218.343,278.238 227.068,263.098 231.528,255.36 218.343,262.988 				
					"/>
				<polygon id="XMLID_233_" style="opacity:0.4;" points="198.825,254.122 200.871,254.122 200.871,252.941 				"/>
				<polygon id="XMLID_232_" style="fill:#27DEBF;" points="220.423,266.592 209.624,247.887 209.624,246.291 221.773,267.371 				
					"/>
				<polygon id="XMLID_231_" style="opacity:0.1;" points="220.423,266.592 209.624,247.887 209.624,246.291 221.773,267.371 				
					"/>
				<polygon id="XMLID_230_" style="fill:#27DEBF;" points="221.773,267.371 209.624,246.291 222.186,239.025 234.335,260.105 				
					"/>
				<polygon id="XMLID_229_" style="opacity:0.3;fill:#FFFFFF;" points="221.773,267.371 209.624,246.291 222.186,239.025 
					234.335,260.105 				"/>
				<g id="XMLID_224_">
					<polygon id="XMLID_227_" style="fill:#455A64;" points="213.976,260.546 205.239,255.498 205.239,265.579 213.976,270.627 
											"/>
					<polygon id="XMLID_226_" style="fill:#E0E0E0;" points="206.134,265.061 206.134,256.015 213.976,260.546 213.976,269.592 
											"/>
					<polygon id="XMLID_225_" style="fill:#37474F;" points="205.239,265.579 206.134,265.061 213.976,269.592 213.976,270.627 
											"/>
				</g>
			</g>
			<g id="XMLID_240_">
				<polygon id="XMLID_290_" style="fill:#F0F0F0;" points="237.423,289.248 237.423,274.049 246.176,268.995 254.896,284.1 
					254.896,299.346 				"/>
				<polygon id="XMLID_289_" style="opacity:0.2;" points="246.176,268.995 235.377,275.23 233.995,274.432 246.176,267.399 				"/>
				<polygon id="XMLID_288_" style="fill:#FAFAFA;" points="254.895,299.345 263.621,284.206 268.08,276.467 254.895,284.096 				
					"/>
				<polygon id="XMLID_287_" style="opacity:0.4;" points="235.377,275.23 237.423,275.23 237.423,274.049 				"/>
				<polygon id="XMLID_286_" style="fill:#27DEBF;" points="256.975,287.699 246.176,268.995 246.176,267.399 258.325,288.479 				
					"/>
				<polygon id="XMLID_285_" style="opacity:0.1;" points="256.975,287.699 246.176,268.995 246.176,267.399 258.325,288.479 				
					"/>
				<polygon id="XMLID_284_" style="fill:#27DEBF;" points="258.325,288.479 246.176,267.399 258.739,260.133 270.887,281.213 				
					"/>
				<polygon id="XMLID_283_" style="opacity:0.3;fill:#FFFFFF;" points="258.325,288.479 246.176,267.399 258.739,260.133 
					270.887,281.213 				"/>
				<g id="XMLID_241_">
					<polygon id="XMLID_282_" style="fill:#455A64;" points="250.528,281.654 241.791,276.606 241.791,286.687 250.528,291.735 
											"/>
					<polygon id="XMLID_281_" style="fill:#E0E0E0;" points="242.686,286.169 242.686,277.123 250.528,281.654 250.528,290.7 					
						"/>
					<polygon id="XMLID_280_" style="fill:#37474F;" points="241.791,286.687 242.686,286.169 250.528,290.7 250.528,291.735 					
						"/>
				</g>
			</g>
			<polygon id="XMLID_239_" style="fill:#27DEBF;" points="189.093,283.83 265.866,328.154 265.866,331.007 240.276,358.446 
				163.503,314.121 163.503,311.269 			"/>
			<polygon id="XMLID_292_" style="fill:#27DEBF;" points="189.093,283.83 265.866,328.154 240.276,355.594 163.503,311.269 			"/>
			<polygon id="XMLID_291_" style="opacity:0.1;" points="240.276,355.594 240.276,358.446 265.866,331.007 265.866,328.154 			"/>
			<polygon id="XMLID_293_" style="opacity:0.15;" points="240.276,358.446 163.503,314.121 163.503,311.269 240.276,355.594 			"/>
			<g id="XMLID_310_">
				<polygon id="XMLID_315_" style="fill:#263238;" points="196.406,333.115 178.126,322.561 178.126,341.98 196.406,352.533 				
					"/>
				<polygon id="XMLID_314_" style="fill:#FAFAFA;" points="179.249,341.329 179.249,323.21 196.405,333.115 196.405,351.234 				
					"/>
				<polygon id="XMLID_14_" style="fill:#F0F0F0;" points="179.249,323.21 179.249,327.435 196.406,337.34 196.406,333.115 				"/>
				<polygon id="XMLID_313_" style="fill:#37474F;" points="178.126,341.98 179.249,341.329 196.405,351.234 196.406,352.533 				
					"/>
				<polygon id="XMLID_312_" style="fill:#37474F;" points="178.126,332.271 179.249,331.62 196.405,341.525 196.406,342.824 				
					"/>
				<polygon id="XMLID_311_" style="fill:#37474F;" points="186.887,347.038 188.01,347.686 188.01,328.268 186.887,327.619 				"/>
			</g>
			<g id="XMLID_317_">
				<polygon id="XMLID_322_" style="fill:#263238;" points="229.308,352.114 211.029,341.561 211.029,360.979 229.308,371.532 				
					"/>
				<polygon id="XMLID_321_" style="fill:#FAFAFA;" points="212.152,360.328 212.152,342.209 229.308,352.114 229.308,370.233 				
					"/>
				<polygon id="XMLID_15_" style="fill:#F0F0F0;" points="212.152,342.209 212.152,346.434 229.308,356.34 229.308,352.114 				"/>
				<polygon id="XMLID_320_" style="fill:#37474F;" points="211.029,360.979 212.152,360.328 229.308,370.233 229.308,371.532 				
					"/>
				<polygon id="XMLID_319_" style="fill:#37474F;" points="211.029,351.27 212.152,350.619 229.308,360.524 229.308,361.823 				
					"/>
				<polygon id="XMLID_318_" style="fill:#37474F;" points="219.79,366.037 220.913,366.685 220.913,347.267 219.79,346.619 				"/>
			</g>
			<g id="XMLID_17_">
				<polygon id="XMLID_24_" style="fill:#263238;" points="254.9,354.225 273.179,343.672 273.179,363.09 254.9,373.643 				"/>
				<polygon id="XMLID_22_" style="fill:#E6E6E6;" points="272.056,362.439 272.056,344.32 254.9,354.225 254.9,372.344 				"/>
				<polygon id="XMLID_21_" style="fill:#E0E0E0;" points="272.056,344.32 272.056,346.175 254.9,356.08 254.9,354.225 				"/>
				<polygon id="XMLID_20_" style="fill:#37474F;" points="273.179,363.09 272.056,362.439 254.9,372.344 254.9,373.643 				"/>
				<polygon id="XMLID_19_" style="fill:#37474F;" points="273.179,353.381 272.056,352.73 254.9,362.635 254.9,363.934 				"/>
				<polygon id="XMLID_18_" style="fill:#37474F;" points="264.418,368.148 263.295,368.796 263.295,349.378 264.418,348.729 				
					"/>
			</g>
			<g id="XMLID_35_">
				<polygon id="XMLID_64_" style="fill:#263238;" points="283.815,291.385 302.094,280.832 302.094,300.25 283.815,310.804 				"/>
				<polygon id="XMLID_63_" style="fill:#E6E6E6;" points="300.971,299.6 300.971,281.481 283.815,291.385 283.815,309.504 				"/>
				<polygon id="XMLID_61_" style="fill:#E0E0E0;" points="300.971,281.481 300.971,283.336 283.815,293.241 283.815,291.385 				
					"/>
				<polygon id="XMLID_51_" style="fill:#37474F;" points="302.094,300.25 300.971,299.6 283.815,309.504 283.815,310.804 				"/>
				<polygon id="XMLID_50_" style="fill:#37474F;" points="302.094,290.541 300.971,289.891 283.815,299.795 283.815,301.095 				
					"/>
				<polygon id="XMLID_49_" style="fill:#37474F;" points="293.333,305.308 292.21,305.957 292.21,286.539 293.333,285.89 				"/>
			</g>
			<g id="XMLID_300_">
				<polygon id="XMLID_303_" style="fill:#37474F;" points="284.146,366.889 284.146,333.118 302.425,322.564 302.425,356.336 				
					"/>
				<polygon id="XMLID_302_" style="fill:#455A64;" points="301.763,355.834 301.763,322.946 284.146,333.118 284.146,366.005 				
					"/>
				<polygon id="XMLID_301_" style="fill:#263238;" points="302.425,322.564 301.763,322.946 301.763,355.834 302.425,356.336 				
					"/>
			</g>
		</g>
	</g>
</g>
<g id="Magnifying_Glass">
	<g id="Magnifying_Glas_1_">
		<g id="XMLID_27_">
			<g id="XMLID_30_">
				<path id="XMLID_33_" style="fill:#27DEBF;" d="M388.441,86.447c0.163-4.862-3.052-10.888-7.181-13.46
					c-2.039-1.27-3.918-1.456-5.319-0.736l-0.002-0.004c-8.448,4.24-67.824,42.314-71.621,44.189l-0.048,0.025
					c-0.706,0.38-1.163,1.225-1.204,2.448c-0.082,2.451,1.538,5.488,3.618,6.783c1.042,0.649,2.002,0.736,2.711,0.355l0.054-0.029
					c6.013-3.311,64.612-28.284,76.592-34.708c0.001-0.001,0.002-0.001,0.003-0.002c0.002-0.001,0.005-0.003,0.007-0.004l0-0.001
					C387.452,90.55,388.36,88.873,388.441,86.447z"/>
				<path id="XMLID_32_" style="opacity:0.1;" d="M386.106,78.237c-1.27-2.176-2.96-4.075-4.846-5.25
					c-2.032-1.266-3.905-1.454-5.304-0.743c-0.282,0.155-0.369,0.206-0.172,0.093c-7.714,3.945-51.903,32.136-66.772,41.298
					c-0.032,0.02-0.066,0.041-0.098,0.06c-0.208,0.128-0.405,0.249-0.601,0.369c-0.06,0.037-0.124,0.076-0.183,0.112
					c-0.117,0.072-0.226,0.138-0.339,0.207c-0.134,0.082-0.271,0.166-0.398,0.243c-0.01,0.006-0.02,0.012-0.03,0.018
					c-1.573,0.959-2.634,1.586-3.044,1.788l-0.048,0.025c-0.128,0.069-0.238,0.17-0.349,0.27c-0.496,0.449-0.82,1.176-0.855,2.178
					c-0.009,0.277,0.01,0.562,0.042,0.851c0.013,0.109,0.033,0.219,0.051,0.329c0.028,0.173,0.062,0.347,0.103,0.521
					c0.033,0.138,0.069,0.276,0.109,0.415c0.048,0.163,0.103,0.325,0.162,0.488c0.043,0.121,0.083,0.243,0.132,0.363
					c0.008,0.02,0.018,0.038,0.027,0.058L386.106,78.237z"/>
				<path id="XMLID_31_" style="fill:#27DEBF;" d="M306.668,125.692c-2.072-1.289-3.686-4.314-3.604-6.755s1.828-3.374,3.9-2.083
					c2.072,1.291,3.685,4.315,3.604,6.755C310.486,126.049,308.74,126.981,306.668,125.692z"/>
			</g>
			<path id="XMLID_29_" style="fill:#37474F;" d="M288.924,127.325c-0.063,1.875,1.177,4.198,2.769,5.19
				c0.792,0.493,1.521,0.563,2.063,0.279l0.001,0.001l0.008-0.004l0.001-0.001l14.362-7.646c0.003-0.002,0.006-0.003,0.01-0.005
				l0.003-0.002l0-0.001c0.538-0.291,0.886-0.936,0.918-1.869c0.063-1.875-1.177-4.198-2.769-5.19
				c-0.796-0.496-1.53-0.565-2.072-0.275l0,0l-14.36,7.644l0.001,0.001C289.311,125.736,288.956,126.384,288.924,127.325z"/>
			<path id="XMLID_28_" style="fill:#263238;" d="M289.857,125.448c-0.547,0.287-0.902,0.935-0.933,1.877
				c-0.024,0.706,0.138,1.477,0.434,2.215l18.521-9.881c-0.448-0.651-0.994-1.209-1.59-1.581c-0.796-0.496-1.53-0.565-2.072-0.275
				l-14.36,7.644L289.857,125.448z"/>
		</g>
		<g id="XMLID_1_">
			<path id="XMLID_23_" style="fill:#27DEBF;" d="M307.348,140.075c-0.001-9.203-6.082-18.407-18.244-25.429
				c-24.325-14.044-63.764-14.044-88.089,0c-12.162,7.022-18.244,16.225-18.244,25.429l0,0v16.953
				c0,9.203,6.081,18.407,18.244,25.429c24.326,14.044,63.764,14.044,88.089,0c12.162-7.022,18.244-16.225,18.244-25.429V140.075
				L307.348,140.075z M204.027,119.863c10.863-6.272,25.435-9.726,41.033-9.726c15.597,0,30.17,3.454,41.033,9.726
				c9.823,5.671,15.231,12.849,15.231,20.213c0,7.363-5.41,14.541-15.231,20.212c-10.863,6.272-25.436,9.726-41.033,9.726
				c-15.596,0-30.169-3.454-41.033-9.726c-9.822-5.671-15.231-12.849-15.231-20.212
				C188.795,132.712,194.204,125.533,204.027,119.863z"/>
			<path id="XMLID_10_" style="opacity:0.3;fill:#FFFFFF;" d="M201.011,165.504c24.325,14.044,63.764,14.044,88.089,0
				c24.325-14.044,24.326-36.814,0-50.858c-24.325-14.044-63.764-14.044-88.089,0C176.686,128.69,176.686,151.46,201.011,165.504z
				 M188.792,140.075c0-7.363,5.408-14.542,15.231-20.213c10.863-6.272,25.435-9.726,41.033-9.726
				c15.597,0,30.17,3.454,41.033,9.726c9.823,5.671,15.231,12.849,15.231,20.213c0,7.363-5.41,14.541-15.231,20.212
				c-10.864,6.272-25.437,9.726-41.033,9.726c-15.597,0-30.17-3.454-41.033-9.726C194.201,154.616,188.792,147.438,188.792,140.075z
				"/>
			<g id="XMLID_7_">
				<path id="XMLID_9_" style="fill:#27DEBF;" d="M188.787,140.074c0,2.891,0.831,5.735,2.434,8.482
					c2.47-4.277,6.819-8.289,12.807-11.734c10.855-6.277,25.433-9.734,41.034-9.734c15.59,0,30.168,3.458,41.022,9.734
					c5.988,3.446,10.337,7.458,12.819,11.734c1.59-2.747,2.422-5.59,2.422-8.482c0-7.361-5.409-14.542-15.24-20.216
					c-10.855-6.265-25.433-9.722-41.022-9.722c-15.602,0-30.18,3.458-41.034,9.722C194.197,125.532,188.787,132.712,188.787,140.074
					z"/>
				<path id="XMLID_8_" style="opacity:0.1;" d="M188.787,140.074c0,2.891,0.831,5.735,2.434,8.482
					c2.47-4.277,6.819-8.289,12.807-11.734c10.855-6.277,25.433-9.734,41.034-9.734c15.59,0,30.168,3.458,41.022,9.734
					c5.988,3.446,10.337,7.458,12.819,11.734c1.59-2.747,2.422-5.59,2.422-8.482c0-7.361-5.409-14.542-15.24-20.216
					c-10.855-6.265-25.433-9.722-41.022-9.722c-15.602,0-30.18,3.458-41.034,9.722C194.197,125.532,188.787,132.712,188.787,140.074
					z"/>
			</g>
			<path id="XMLID_6_" style="opacity:0.4;fill:#FFFFFF;" d="M204.023,127.538c10.863-6.272,25.435-9.726,41.033-9.726
				c15.597,0,30.17,3.454,41.033,9.726c8.105,4.679,13.195,10.385,14.73,16.374c-1.536,5.989-6.626,11.695-14.73,16.374
				c-10.864,6.272-25.437,9.726-41.033,9.726c-15.597,0-30.17-3.454-41.033-9.726c-8.105-4.679-13.195-10.385-14.731-16.374
				C190.828,137.924,195.918,132.217,204.023,127.538z"/>
			<path id="XMLID_5_" style="opacity:0.1;" d="M230.38,175.036v16.939c-10.758-1.494-20.963-4.663-29.36-9.518
				c-12.168-7.024-18.252-16.228-18.252-25.433v-16.951c0-1.855,0.253-3.711,0.747-5.554h0.012
				c-2.952,10.951,2.88,22.541,17.493,30.987C209.416,170.361,219.621,173.53,230.38,175.036z"/>
		</g>
	</g>
</g>
</svg>
